<?xml version="1.0" encoding="UTF-8" standalone="no"?>
<!DOCTYPE svg PUBLIC "-//W3C//DTD SVG 1.0//EN"
 "http://www.w3.org/TR/2001/REC-SVG-20010904/DTD/svg10.dtd" [
 <!ATTLIST svg xmlns:xlink CDATA #FIXED "http://www.w3.org/1999/xlink">
]>
<!-- Generated by Graphviz version 2.20.2 (Mon Feb 23 19:15:28 UTC 2009)
     For user: (kviljoen)  -->
<!-- Title: yamp_DAG Pages: 1 -->
<svg width="1022pt" height="774pt"
 viewBox="0.00 0.00 1022.00 774.00" xmlns="http://www.w3.org/2000/svg" xmlns:xlink="http://www.w3.org/1999/xlink">
<g id="graph0" class="graph" transform="scale(1 1) rotate(0) translate(4 770)">
<title>yamp_DAG</title>
<polygon style="fill:white;stroke:white;" points="-4,4 -4,-770 1018,-770 1018,4 -4,4"/>
<!-- p0 -->
<g id="node1" class="node"><title>p0</title>
<ellipse style="fill:black;stroke:black;" cx="126" cy="-763" rx="3.6" ry="3.6"/>
</g>
<!-- p1 -->
<g id="node2" class="node"><title>p1</title>
<ellipse style="fill:none;stroke:black;" cx="126" cy="-719" rx="3" ry="3"/>
</g>
<!-- p0&#45;&gt;p1 -->
<g id="edge2" class="edge"><title>p0&#45;&gt;p1</title>
<path style="fill:none;stroke:black;" d="M126,-759C126,-753 126,-742 126,-732"/>
<polygon style="fill:black;stroke:black;" points="129.5,-732 126,-722 122.5,-732 129.5,-732"/>
</g>
<!-- p2 -->
<g id="node4" class="node"><title>p2</title>
<ellipse style="fill:none;stroke:black;" cx="126" cy="-675" rx="3" ry="3"/>
</g>
<!-- p1&#45;&gt;p2 -->
<g id="edge4" class="edge"><title>p1&#45;&gt;p2</title>
<path style="fill:none;stroke:black;" d="M126,-716C126,-710 126,-698 126,-688"/>
<polygon style="fill:black;stroke:black;" points="129.5,-688 126,-678 122.5,-688 129.5,-688"/>
</g>
<!-- p3 -->
<g id="node6" class="node"><title>p3</title>
<ellipse style="fill:none;stroke:black;" cx="61" cy="-599" rx="58.1882" ry="18.3848"/>
<text text-anchor="middle" x="61" y="-595.4" style="font-family:Times New Roman;font-size:14.00;">runFastQC</text>
</g>
<!-- p2&#45;&gt;p3 -->
<g id="edge6" class="edge"><title>p2&#45;&gt;p3</title>
<path style="fill:none;stroke:black;" d="M123,-674C111,-672 70,-664 62,-654 57,-647 56,-637 56,-628"/>
<polygon style="fill:black;stroke:black;" points="59.5001,-628 56,-618 52.5001,-628 59.5001,-628"/>
<text text-anchor="middle" x="121" y="-641.4" style="font-family:Times New Roman;font-size:14.00;">ReadPairsToQual</text>
</g>
<!-- p6 -->
<g id="node8" class="node"><title>p6</title>
<ellipse style="fill:none;stroke:black;" cx="192" cy="-599" rx="38.1838" ry="18.3848"/>
<text text-anchor="middle" x="192" y="-595.4" style="font-family:Times New Roman;font-size:14.00;">dedup</text>
</g>
<!-- p2&#45;&gt;p6 -->
<g id="edge8" class="edge"><title>p2&#45;&gt;p6</title>
<path style="fill:none;stroke:black;" d="M129,-674C138,-672 159,-666 170,-654 177,-647 183,-636 186,-627"/>
<polygon style="fill:black;stroke:black;" points="189.479,-627.584 189,-617 182.774,-625.573 189.479,-627.584"/>
<text text-anchor="middle" x="214" y="-641.4" style="font-family:Times New Roman;font-size:14.00;">ReadPairs</text>
</g>
<!-- p4 -->
<g id="node10" class="node"><title>p4</title>
<ellipse style="fill:none;stroke:black;" cx="61" cy="-507" rx="3" ry="3"/>
</g>
<!-- p3&#45;&gt;p4 -->
<g id="edge10" class="edge"><title>p3&#45;&gt;p4</title>
<path style="fill:none;stroke:black;" d="M61,-580C61,-562 61,-536 61,-520"/>
<polygon style="fill:black;stroke:black;" points="64.5001,-520 61,-510 57.5001,-520 64.5001,-520"/>
<text text-anchor="middle" x="95" y="-549.4" style="font-family:Times New Roman;font-size:14.00;">fastqc_files</text>
</g>
<!-- p11 -->
<g id="node14" class="node"><title>p11</title>
<ellipse style="fill:none;stroke:black;" cx="373" cy="-507" rx="36.977" ry="18.3848"/>
<text text-anchor="middle" x="373" y="-503.4" style="font-family:Times New Roman;font-size:14.00;">bbduk</text>
</g>
<!-- p6&#45;&gt;p11 -->
<g id="edge14" class="edge"><title>p6&#45;&gt;p11</title>
<path style="fill:none;stroke:black;" d="M217,-585C241,-571 276,-551 290,-544 305,-537 321,-529 335,-523"/>
<polygon style="fill:black;stroke:black;" points="336.283,-526.26 344,-519 333.44,-519.863 336.283,-526.26"/>
<text text-anchor="middle" x="307" y="-549.4" style="font-family:Times New Roman;font-size:14.00;">totrim</text>
</g>
<!-- p7 -->
<g id="node16" class="node"><title>p7</title>
<ellipse style="fill:black;stroke:black;" cx="156" cy="-507" rx="1.8" ry="1.8"/>
</g>
<!-- p6&#45;&gt;p7 -->
<g id="edge16" class="edge"><title>p6&#45;&gt;p7</title>
<path style="fill:none;stroke:black;" d="M172,-583C166,-577 160,-570 157,-562 151,-548 152,-530 154,-519"/>
<polygon style="fill:black;stroke:black;" points="157.471,-519.492 156,-509 150.607,-518.119 157.471,-519.492"/>
<text text-anchor="middle" x="210" y="-549.4" style="font-family:Times New Roman;font-size:14.00;">topublishdedupe</text>
</g>
<!-- p5 -->
<g id="node12" class="node"><title>p5</title>
<ellipse style="fill:none;stroke:black;" cx="61" cy="-415" rx="60.8112" ry="18.3848"/>
<text text-anchor="middle" x="61" y="-411.4" style="font-family:Times New Roman;font-size:14.00;">runMultiQC</text>
</g>
<!-- p4&#45;&gt;p5 -->
<g id="edge12" class="edge"><title>p4&#45;&gt;p5</title>
<path style="fill:none;stroke:black;" d="M61,-504C61,-495 61,-466 61,-444"/>
<polygon style="fill:black;stroke:black;" points="64.5001,-444 61,-434 57.5001,-444 64.5001,-444"/>
</g>
<!-- p16 -->
<g id="node24" class="node"><title>p16</title>
<ellipse style="fill:none;stroke:black;" cx="602" cy="-415" rx="74.2462" ry="18.3848"/>
<text text-anchor="middle" x="602" y="-411.4" style="font-family:Times New Roman;font-size:14.00;">decontaminate</text>
</g>
<!-- p11&#45;&gt;p16 -->
<g id="edge24" class="edge"><title>p11&#45;&gt;p16</title>
<path style="fill:none;stroke:black;" d="M400,-495C435,-479 492,-453 497,-452 513,-445 531,-439 547,-433"/>
<polygon style="fill:black;stroke:black;" points="548.427,-436.226 557,-430 546.416,-429.521 548.427,-436.226"/>
<text text-anchor="middle" x="547" y="-457.4" style="font-family:Times New Roman;font-size:14.00;">todecontaminate</text>
</g>
<!-- p12 -->
<g id="node26" class="node"><title>p12</title>
<ellipse style="fill:none;stroke:black;" cx="339" cy="-415" rx="132.229" ry="18.3848"/>
<text text-anchor="middle" x="339" y="-411.4" style="font-family:Times New Roman;font-size:14.00;">runFastQC_postfilterandtrim</text>
</g>
<!-- p11&#45;&gt;p12 -->
<g id="edge26" class="edge"><title>p11&#45;&gt;p12</title>
<path style="fill:none;stroke:black;" d="M354,-491C349,-485 343,-478 340,-470 336,-462 335,-453 335,-444"/>
<polygon style="fill:black;stroke:black;" points="338.488,-444.299 336,-434 331.522,-443.602 338.488,-444.299"/>
<text text-anchor="middle" x="398" y="-457.4" style="font-family:Times New Roman;font-size:14.00;">filteredReadsforQC</text>
</g>
<!-- p8 -->
<g id="node18" class="node"><title>p8</title>
<ellipse style="fill:black;stroke:black;" cx="485" cy="-599" rx="3.6" ry="3.6"/>
</g>
<!-- p8&#45;&gt;p11 -->
<g id="edge18" class="edge"><title>p8&#45;&gt;p11</title>
<path style="fill:none;stroke:black;" d="M484,-596C480,-586 468,-559 451,-544 441,-534 427,-527 414,-521"/>
<polygon style="fill:black;stroke:black;" points="415.56,-517.863 405,-517 412.717,-524.26 415.56,-517.863"/>
<text text-anchor="middle" x="491" y="-549.4" style="font-family:Times New Roman;font-size:14.00;">adapters</text>
</g>
<!-- p9 -->
<g id="node20" class="node"><title>p9</title>
<ellipse style="fill:black;stroke:black;" cx="336" cy="-599" rx="3.6" ry="3.6"/>
</g>
<!-- p9&#45;&gt;p11 -->
<g id="edge20" class="edge"><title>p9&#45;&gt;p11</title>
<path style="fill:none;stroke:black;" d="M335,-595C332,-586 327,-562 335,-544 337,-539 340,-534 344,-529"/>
<polygon style="fill:black;stroke:black;" points="346.404,-531.546 351,-522 341.454,-526.596 346.404,-531.546"/>
<text text-anchor="middle" x="358" y="-549.4" style="font-family:Times New Roman;font-size:14.00;">artifacts</text>
</g>
<!-- p10 -->
<g id="node22" class="node"><title>p10</title>
<ellipse style="fill:black;stroke:black;" cx="406" cy="-599" rx="3.6" ry="3.6"/>
</g>
<!-- p10&#45;&gt;p11 -->
<g id="edge22" class="edge"><title>p10&#45;&gt;p11</title>
<path style="fill:none;stroke:black;" d="M405,-596C402,-586 391,-557 383,-535"/>
<polygon style="fill:black;stroke:black;" points="386.226,-533.573 380,-525 379.521,-535.584 386.226,-533.573"/>
<text text-anchor="middle" x="419" y="-549.4" style="font-family:Times New Roman;font-size:14.00;">phix174ill</text>
</g>
<!-- p20 -->
<g id="node34" class="node"><title>p20</title>
<ellipse style="fill:none;stroke:black;" cx="815" cy="-323" rx="61.0181" ry="18.3848"/>
<text text-anchor="middle" x="815" y="-319.4" style="font-family:Times New Roman;font-size:14.00;">metaphlan2</text>
</g>
<!-- p16&#45;&gt;p20 -->
<g id="edge34" class="edge"><title>p16&#45;&gt;p20</title>
<path style="fill:none;stroke:black;" d="M616,-397C627,-384 643,-369 660,-360 692,-342 704,-350 740,-342 746,-341 752,-339 758,-337"/>
<polygon style="fill:black;stroke:black;" points="758.881,-340.393 768,-335 757.508,-333.529 758.881,-340.393"/>
<text text-anchor="middle" x="734" y="-365.4" style="font-family:Times New Roman;font-size:14.00;">cleanreadstometaphlan2</text>
</g>
<!-- p25 -->
<g id="node36" class="node"><title>p25</title>
<ellipse style="fill:none;stroke:black;" cx="602" cy="-231" rx="51.1176" ry="18.3848"/>
<text text-anchor="middle" x="602" y="-227.4" style="font-family:Times New Roman;font-size:14.00;">humann2</text>
</g>
<!-- p16&#45;&gt;p25 -->
<g id="edge36" class="edge"><title>p16&#45;&gt;p25</title>
<path style="fill:none;stroke:black;" d="M602,-396C602,-364 602,-298 602,-260"/>
<polygon style="fill:black;stroke:black;" points="605.5,-260 602,-250 598.5,-260 605.5,-260"/>
<text text-anchor="middle" x="669" y="-319.4" style="font-family:Times New Roman;font-size:14.00;">cleanreadstohumann2</text>
</g>
<!-- p17 -->
<g id="node38" class="node"><title>p17</title>
<ellipse style="fill:black;stroke:black;" cx="444" cy="-323" rx="1.8" ry="1.8"/>
</g>
<!-- p16&#45;&gt;p17 -->
<g id="edge38" class="edge"><title>p16&#45;&gt;p17</title>
<path style="fill:none;stroke:black;" d="M535,-407C497,-401 456,-392 445,-378 435,-365 437,-347 440,-335"/>
<polygon style="fill:black;stroke:black;" points="443.479,-335.584 443,-325 436.774,-333.573 443.479,-335.584"/>
<text text-anchor="middle" x="516" y="-365.4" style="font-family:Times New Roman;font-size:14.00;">topublishdecontaminate</text>
</g>
<!-- p13 -->
<g id="node28" class="node"><title>p13</title>
<ellipse style="fill:none;stroke:black;" cx="338" cy="-323" rx="3" ry="3"/>
</g>
<!-- p12&#45;&gt;p13 -->
<g id="edge28" class="edge"><title>p12&#45;&gt;p13</title>
<path style="fill:none;stroke:black;" d="M339,-396C339,-378 338,-352 338,-336"/>
<polygon style="fill:black;stroke:black;" points="341.5,-336 338,-326 334.5,-336 341.5,-336"/>
<text text-anchor="middle" x="379" y="-365.4" style="font-family:Times New Roman;font-size:14.00;">fastqc_files_2</text>
</g>
<!-- p14 -->
<g id="node30" class="node"><title>p14</title>
<ellipse style="fill:none;stroke:black;" cx="338" cy="-231" rx="133.851" ry="18.3848"/>
<text text-anchor="middle" x="338" y="-227.4" style="font-family:Times New Roman;font-size:14.00;">runMultiQC_postfilterandtrim</text>
</g>
<!-- p13&#45;&gt;p14 -->
<g id="edge30" class="edge"><title>p13&#45;&gt;p14</title>
<path style="fill:none;stroke:black;" d="M338,-320C338,-311 338,-282 338,-260"/>
<polygon style="fill:black;stroke:black;" points="341.5,-260 338,-250 334.5,-260 341.5,-260"/>
</g>
<!-- p15 -->
<g id="node32" class="node"><title>p15</title>
<ellipse style="fill:black;stroke:black;" cx="602" cy="-507" rx="3.6" ry="3.6"/>
</g>
<!-- p15&#45;&gt;p16 -->
<g id="edge32" class="edge"><title>p15&#45;&gt;p16</title>
<path style="fill:none;stroke:black;" d="M602,-503C602,-493 602,-466 602,-444"/>
<polygon style="fill:black;stroke:black;" points="605.5,-444 602,-434 598.5,-444 605.5,-444"/>
<text text-anchor="middle" x="659" y="-457.4" style="font-family:Times New Roman;font-size:14.00;">refForeignGenome</text>
</g>
<!-- p20&#45;&gt;p25 -->
<g id="edge44" class="edge"><title>p20&#45;&gt;p25</title>
<path style="fill:none;stroke:black;" d="M769,-311C759,-308 749,-306 740,-304 694,-294 674,-312 636,-286 626,-279 618,-269 613,-258"/>
<polygon style="fill:black;stroke:black;" points="616.26,-256.717 609,-249 609.863,-259.56 616.26,-256.717"/>
<text text-anchor="middle" x="702" y="-273.4" style="font-family:Times New Roman;font-size:14.00;">metaphlantohumann2</text>
</g>
<!-- p21 -->
<g id="node45" class="node"><title>p21</title>
<ellipse style="fill:none;stroke:black;" cx="919" cy="-231" rx="3" ry="3"/>
</g>
<!-- p20&#45;&gt;p21 -->
<g id="edge46" class="edge"><title>p20&#45;&gt;p21</title>
<path style="fill:none;stroke:black;" d="M837,-305C855,-291 881,-270 902,-250 905,-248 908,-245 910,-242"/>
<polygon style="fill:black;stroke:black;" points="913.049,-243.831 917,-234 907.781,-239.221 913.049,-243.831"/>
<text text-anchor="middle" x="936" y="-273.4" style="font-family:Times New Roman;font-size:14.00;">metaphlantomerge</text>
</g>
<!-- p26 -->
<g id="node47" class="node"><title>p26</title>
<ellipse style="fill:none;stroke:black;" cx="719" cy="-139" rx="3" ry="3"/>
</g>
<!-- p20&#45;&gt;p26 -->
<g id="edge48" class="edge"><title>p20&#45;&gt;p26</title>
<path style="fill:none;stroke:black;" d="M809,-305C804,-290 797,-268 791,-250 780,-217 787,-204 768,-176 758,-162 742,-151 731,-145"/>
<polygon style="fill:black;stroke:black;" points="732.441,-141.797 722,-140 729.042,-147.916 732.441,-141.797"/>
<text text-anchor="middle" x="849" y="-227.4" style="font-family:Times New Roman;font-size:14.00;">topublishprofiletaxa</text>
</g>
<!-- p25&#45;&gt;p26 -->
<g id="edge56" class="edge"><title>p25&#45;&gt;p26</title>
<path style="fill:none;stroke:black;" d="M617,-213C628,-202 642,-187 657,-176 673,-163 694,-151 707,-145"/>
<polygon style="fill:black;stroke:black;" points="708.958,-147.916 716,-140 705.559,-141.797 708.958,-147.916"/>
<text text-anchor="middle" x="712" y="-181.4" style="font-family:Times New Roman;font-size:14.00;">topublishhumann2</text>
</g>
<!-- p18 -->
<g id="node40" class="node"><title>p18</title>
<ellipse style="fill:black;stroke:black;" cx="813" cy="-415" rx="3.6" ry="3.6"/>
</g>
<!-- p18&#45;&gt;p20 -->
<g id="edge40" class="edge"><title>p18&#45;&gt;p20</title>
<path style="fill:none;stroke:black;" d="M813,-411C813,-402 813,-379 814,-360 814,-357 814,-355 814,-352"/>
<polygon style="fill:black;stroke:black;" points="817.5,-352 814,-342 810.5,-352 817.5,-352"/>
<text text-anchor="middle" x="840" y="-365.4" style="font-family:Times New Roman;font-size:14.00;">mpa_pkl</text>
</g>
<!-- p19 -->
<g id="node42" class="node"><title>p19</title>
<ellipse style="fill:black;stroke:black;" cx="888" cy="-415" rx="3.6" ry="3.6"/>
</g>
<!-- p19&#45;&gt;p20 -->
<g id="edge42" class="edge"><title>p19&#45;&gt;p20</title>
<path style="fill:none;stroke:black;" d="M887,-411C885,-402 879,-376 866,-360 862,-355 857,-350 852,-346"/>
<polygon style="fill:black;stroke:black;" points="853.831,-342.951 844,-339 849.221,-348.219 853.831,-342.951"/>
<text text-anchor="middle" x="907" y="-365.4" style="font-family:Times New Roman;font-size:14.00;">bowtie2db</text>
</g>
<!-- p22 -->
<g id="node49" class="node"><title>p22</title>
<ellipse style="fill:none;stroke:black;" cx="919" cy="-139" rx="94.7523" ry="18.3848"/>
<text text-anchor="middle" x="919" y="-135.4" style="font-family:Times New Roman;font-size:14.00;">merge_metaphlan2</text>
</g>
<!-- p21&#45;&gt;p22 -->
<g id="edge50" class="edge"><title>p21&#45;&gt;p22</title>
<path style="fill:none;stroke:black;" d="M919,-228C919,-219 919,-190 919,-168"/>
<polygon style="fill:black;stroke:black;" points="922.5,-168 919,-158 915.5,-168 922.5,-168"/>
</g>
<!-- p27 -->
<g id="node56" class="node"><title>p27</title>
<ellipse style="fill:none;stroke:black;" cx="719" cy="-79" rx="3" ry="3"/>
</g>
<!-- p26&#45;&gt;p27 -->
<g id="edge58" class="edge"><title>p26&#45;&gt;p27</title>
<path style="fill:none;stroke:black;" d="M719,-136C719,-127 719,-106 719,-92"/>
<polygon style="fill:black;stroke:black;" points="722.5,-92 719,-82 715.5,-92 722.5,-92"/>
</g>
<!-- p23 -->
<g id="node51" class="node"><title>p23</title>
<ellipse style="fill:black;stroke:black;" cx="421" cy="-323" rx="3.6" ry="3.6"/>
</g>
<!-- p23&#45;&gt;p25 -->
<g id="edge52" class="edge"><title>p23&#45;&gt;p25</title>
<path style="fill:none;stroke:black;" d="M423,-320C424,-316 428,-309 433,-304 449,-285 453,-279 475,-268 497,-256 523,-247 546,-241"/>
<polygon style="fill:black;stroke:black;" points="546.881,-244.393 556,-239 545.508,-237.529 546.881,-244.393"/>
<text text-anchor="middle" x="509" y="-273.4" style="font-family:Times New Roman;font-size:14.00;">chocophlan</text>
</g>
<!-- p24 -->
<g id="node53" class="node"><title>p24</title>
<ellipse style="fill:black;stroke:black;" cx="553" cy="-323" rx="3.6" ry="3.6"/>
</g>
<!-- p24&#45;&gt;p25 -->
<g id="edge54" class="edge"><title>p24&#45;&gt;p25</title>
<path style="fill:none;stroke:black;" d="M552,-319C550,-310 545,-285 554,-268 557,-262 561,-257 565,-253"/>
<polygon style="fill:black;stroke:black;" points="567.779,-255.219 573,-246 563.169,-249.951 567.779,-255.219"/>
<text text-anchor="middle" x="571" y="-273.4" style="font-family:Times New Roman;font-size:14.00;">uniref</text>
</g>
<!-- p28 -->
<g id="node58" class="node"><title>p28</title>
<ellipse style="fill:none;stroke:black;" cx="719" cy="-19" rx="74.2462" ry="18.3848"/>
<text text-anchor="middle" x="719" y="-15.4" style="font-family:Times New Roman;font-size:14.00;">saveCCtmpfile</text>
</g>
<!-- p27&#45;&gt;p28 -->
<g id="edge60" class="edge"><title>p27&#45;&gt;p28</title>
<path style="fill:none;stroke:black;" d="M719,-76C719,-71 719,-59 719,-48"/>
<polygon style="fill:black;stroke:black;" points="722.5,-48 719,-38 715.5,-48 722.5,-48"/>
</g>
</g>
</svg>
